<svg xmlns="http://www.w3.org/2000/svg" viewBox="0 0 480 300" width="480" height="300">
  <rect width="480" height="300" fill="#f0ebff"/>
  <rect x="0" y="0" width="480" height="5" fill="#7c3aed"/>
  <rect x="24" y="24" width="56" height="56" rx="14" fill="#7c3aed" opacity="0.12"/>
  <text x="52" y="62" text-anchor="middle" font-size="32">📊</text>
  <text x="96" y="52" font-size="18" font-weight="700" fill="#7c3aed" font-family="Georgia, serif">Texture</text>
  <text x="96" y="70" font-size="11" fill="#64748b" font-family="Georgia, serif">yogesh-chauhan-ai.github.io</text>
  <rect x="24" y="100" width="432" height="1" fill="#7c3aed" opacity="0.15"/>
  <rect x="24" y="130" width="220" height="10" rx="5" fill="#7c3aed" opacity="0.15"/>
  <rect x="24" y="150" width="340" height="8" rx="4" fill="#7c3aed" opacity="0.1"/>
  <rect x="24" y="168" width="280" height="8" rx="4" fill="#7c3aed" opacity="0.1"/>
  <rect x="24" y="186" width="180" height="8" rx="4" fill="#7c3aed" opacity="0.08"/>
  <rect x="24" y="220" width="80" height="28" rx="6" fill="#7c3aed" opacity="0.15"/>
  <rect x="116" y="220" width="80" height="28" rx="6" fill="#7c3aed" opacity="0.1"/>
  <rect x="208" y="220" width="80" height="28" rx="6" fill="#7c3aed" opacity="0.1"/>
  <rect x="24" y="265" width="432" height="2" rx="1" fill="#7c3aed" opacity="0.2"/>
</svg>